<?xml version="1.0" standalone="no"?>
<!DOCTYPE svg PUBLIC "-//W3C//DTD SVG 20010904//EN"
 "http://www.w3.org/TR/2001/REC-SVG-20010904/DTD/svg10.dtd">
<svg version="1.0" xmlns="http://www.w3.org/2000/svg"
 width="1207.000000pt" height="1210.000000pt" viewBox="0 0 1207.000000 1210.000000"
 preserveAspectRatio="xMidYMid meet">
<metadata>
Created by potrace 1.13, written by Peter Selinger 2001-2015
</metadata>
<g transform="translate(0.000000,1210.000000) scale(0.100000,-0.100000)"
fill="#000000" stroke="none">
<path d="M7453 11861 c-16 -4 -37 -35 -73 -104 -27 -54 -47 -103 -44 -109 4
-6 3 -8 -3 -5 -5 3 -36 -33 -69 -81 -72 -106 -220 -258 -331 -339 -101 -75
-266 -160 -400 -207 -407 -141 -864 -104 -1230 101 -253 141 -490 395 -618
660 -39 80 -41 82 -75 81 -50 -1 -170 -29 -170 -39 0 -5 -6 -9 -13 -9 -8 0
-102 -29 -210 -65 -360 -118 -743 -281 -1059 -451 -75 -41 -142 -74 -148 -74
-33 0 -387 -232 -605 -395 -277 -208 -666 -560 -705 -638 l-21 -42 56 -84
c172 -257 254 -534 255 -858 0 -204 -71 -485 -168 -666 -286 -531 -827 -842
-1413 -812 l-137 7 -15 -53 c-94 -326 -176 -778 -207 -1144 -56 -658 15 -1429
193 -2095 34 -125 34 -125 63 -123 131 7 342 1 419 -12 627 -108 1103 -565
1236 -1187 30 -137 36 -363 15 -508 -31 -209 -118 -434 -240 -619 l-64 -99
141 -139 c302 -295 566 -510 897 -728 567 -375 1167 -643 1822 -815 l108 -28
62 121 c372 729 1268 1026 2000 662 154 -76 254 -150 389 -284 135 -135 223
-256 300 -412 l42 -86 111 29 c1058 284 2013 832 2753 1580 l103 103 -53 80
c-157 236 -233 450 -257 729 -50 575 251 1138 765 1429 242 137 555 207 835
187 58 -5 106 -7 107 -6 1 1 23 81 47 177 84 323 144 673 178 1034 17 184 17
793 0 985 -32 359 -100 749 -184 1064 l-43 160 -65 -5 c-312 -21 -581 33 -838
166 -142 74 -249 153 -367 270 -217 217 -356 480 -417 788 -29 147 -31 385 -4
527 39 202 121 405 236 579 l62 94 -104 105 c-110 111 -308 292 -448 408 -624
519 -1437 942 -2225 1159 -71 20 -134 37 -140 39 -5 1 -20 0 -32 -3z m303
-2095 c8 -8 14 -24 14 -37 0 -16 3 -19 13 -11 10 8 12 2 9 -29 -3 -23 0 -39 7
-39 6 0 8 7 5 15 -4 8 -1 15 5 15 6 0 8 7 5 15 -4 9 0 15 7 16 8 1 26 3 42 5
24 2 26 1 17 -17 -7 -12 -7 -19 -1 -19 7 0 7 -9 0 -27 -8 -23 -6 -30 14 -47
25 -23 41 -53 38 -73 -1 -8 4 -10 14 -7 9 4 15 1 15 -7 0 -11 2 -11 8 -1 5 7
19 14 31 17 18 3 22 0 21 -18 -4 -45 0 -59 14 -54 10 4 13 1 10 -7 -7 -18 15
-34 51 -38 19 -2 33 -11 40 -25 7 -18 16 -21 38 -18 15 3 37 1 48 -5 19 -11
19 -12 2 -40 -21 -36 -33 -37 -59 -9 -19 22 -19 22 3 10 12 -6 25 -11 30 -11
9 0 -49 40 -59 40 -6 0 -58 -84 -58 -95 0 -3 5 -3 12 1 7 4 8 3 4 -5 -4 -6
-11 -9 -16 -6 -8 5 -34 -31 -33 -45 0 -10 -44 -75 -61 -89 -19 -16 -21 -37 -4
-47 6 -4 8 -3 4 4 -3 6 -1 14 6 18 7 4 10 4 6 -1 -4 -4 -3 -14 2 -21 8 -8 4
-23 -15 -49 -14 -21 -25 -45 -25 -55 0 -9 -11 -27 -25 -40 l-25 -23 1 29 c0
16 3 23 6 17 6 -16 33 8 33 29 0 8 -3 9 -8 3 -12 -17 -32 -16 -32 1 0 10 -6
14 -15 10 -19 -7 -20 8 -1 23 10 9 15 8 20 -4 8 -21 18 -18 40 11 14 21 16 28
6 37 -10 9 -11 9 -5 -2 5 -9 4 -12 -3 -7 -19 12 -14 26 29 77 55 66 41 112
-16 54 -14 -13 -25 -22 -25 -20 0 7 30 139 35 153 6 18 4 27 -6 24 -5 -1 -9 5
-9 14 0 8 -4 12 -10 9 -5 -3 -10 1 -10 9 0 8 5 18 11 22 8 4 7 9 -2 15 -7 4
-17 5 -22 2 -17 -11 -39 -78 -42 -131 -2 -29 -13 -73 -25 -97 -12 -24 -21 -63
-22 -87 0 -33 -7 -51 -29 -76 -16 -18 -29 -37 -29 -42 0 -11 -49 -14 -73 -4
-11 4 -13 16 -10 49 5 37 2 45 -16 55 -36 19 -66 9 -69 -22 -2 -16 1 -28 7
-28 16 0 13 -36 -4 -50 -8 -7 -15 -19 -15 -26 0 -8 -4 -14 -9 -14 -5 0 -12 -7
-15 -16 -5 -14 -4 -15 9 -4 12 10 15 10 15 -3 0 -9 -9 -19 -20 -22 -11 -3 -20
-15 -20 -26 0 -23 -8 -24 -34 -4 -18 14 -19 16 -3 28 20 15 50 84 42 97 -3 5
3 19 13 30 24 26 23 62 -2 66 -10 1 -22 8 -26 14 -5 8 -9 7 -13 -3 -3 -9 1
-18 9 -21 9 -3 12 -11 8 -17 -4 -8 -9 -7 -16 2 -6 9 -7 1 -3 -25 6 -36 5 -38
-9 -27 -9 8 -16 28 -16 45 0 19 -3 26 -8 18 -14 -22 -7 -108 12 -136 l17 -27
-31 16 c-33 17 -69 81 -70 122 0 25 39 56 61 48 8 -2 20 -1 27 4 17 10 12 45
-6 47 -6 1 -16 2 -21 3 -5 0 -12 8 -15 17 -3 8 -2 12 4 9 6 -3 15 -3 21 1 8 4
7 9 -2 15 -9 5 -5 10 15 15 20 5 30 2 41 -12 11 -15 17 -17 32 -8 29 18 21 38
-15 44 -31 5 -36 11 -61 74 -17 42 -36 73 -47 77 -10 4 -13 8 -6 8 26 2 4 77
-37 125 -15 18 -15 18 7 7 12 -6 22 -16 22 -21 0 -5 13 -16 29 -24 26 -14 30
-14 42 0 9 11 10 20 2 33 -6 9 -13 32 -17 51 -5 30 -5 33 6 17 35 -51 39 -53
32 -25 -3 16 -3 36 1 45 4 10 7 37 7 61 0 46 0 47 30 31 19 -10 20 -9 15 10
-7 27 16 39 39 20 13 -10 17 -10 25 2 5 8 9 21 9 29 1 9 5 6 10 -7 11 -28 36
-21 44 13 7 28 12 29 32 10z m-3606 -27 c0 -17 4 -28 10 -24 6 4 10 -10 10
-34 0 -29 4 -41 14 -41 11 0 14 9 10 38 -4 32 -3 34 6 13 8 -19 13 -21 25 -11
13 11 14 10 10 -3 -4 -8 -2 -18 4 -22 6 -3 11 1 11 11 0 10 3 15 6 11 11 -11
-7 -47 -24 -47 -13 -1 -11 -6 10 -24 15 -13 24 -27 21 -30 -4 -3 -1 -6 5 -6 7
0 12 -7 12 -15 0 -8 4 -15 9 -15 4 0 6 -12 3 -27 -5 -26 -4 -27 13 -13 17 14
18 13 13 -7 -5 -20 -3 -21 12 -13 26 14 40 12 40 -5 0 -8 5 -15 10 -15 7 0 7
7 -1 21 -9 17 -8 25 6 38 16 15 17 15 11 -6 -4 -13 -1 -27 8 -35 12 -11 11
-15 -8 -26 -20 -12 -19 -13 8 -7 l28 6 -6 -44 c-8 -53 11 -68 49 -39 18 14 21
22 13 36 -13 23 11 18 26 -6 7 -12 -2 -34 -37 -91 -26 -41 -47 -79 -47 -85 0
-5 -18 -34 -40 -63 -42 -56 -47 -69 -29 -69 5 0 7 -4 4 -10 -3 -6 1 -7 9 -4
19 7 20 -5 2 -28 -18 -24 -24 -23 -28 5 -2 12 -9 21 -16 19 -20 -4 -13 10 33
67 24 30 42 58 39 63 -10 16 -52 7 -67 -14 -14 -21 -14 -19 -5 32 5 30 16 70
24 89 13 32 13 36 -6 53 -11 10 -20 16 -20 12 0 -4 -3 -5 -6 -2 -3 4 -1 16 6
27 9 18 8 21 -10 21 -24 0 -50 -56 -55 -116 -4 -58 -15 -105 -32 -130 -7 -12
-14 -42 -15 -68 0 -26 -7 -51 -14 -57 -12 -10 -13 -9 -8 5 3 9 3 23 0 32 -5
13 -12 9 -39 -20 -19 -20 -39 -36 -46 -36 -7 0 -11 -6 -8 -14 4 -10 1 -13 -9
-9 -9 3 -14 19 -14 45 0 28 -4 39 -12 35 -7 -2 -22 -1 -33 3 -11 4 -26 3 -32
-2 -15 -12 -17 -48 -3 -48 16 0 12 -50 -5 -56 -8 -4 -15 -12 -15 -20 0 -8 -4
-14 -9 -14 -5 0 -12 -7 -15 -16 -4 -12 -2 -15 9 -10 8 3 15 1 15 -4 0 -5 -9
-12 -20 -15 -20 -6 -25 -16 -13 -28 3 -4 13 -1 21 6 13 10 14 9 10 -3 -5 -17
-57 -24 -74 -9 -10 8 -8 15 6 29 11 11 25 40 31 65 6 25 16 45 21 45 5 0 7 4
3 9 -3 5 -1 12 5 16 5 3 10 17 10 31 0 18 -7 28 -28 35 -15 5 -32 19 -37 32
-6 12 -15 22 -22 22 -6 0 -15 3 -19 8 -4 4 -2 7 4 7 7 0 12 9 12 20 0 24 37
28 46 6 9 -23 54 2 71 39 l14 30 -4 -27 c-3 -17 0 -28 7 -28 23 0 35 17 34 47
-1 18 4 39 11 46 18 22 3 49 -19 37 -10 -6 -26 -7 -34 -4 -19 7 -20 0 -4 -26
10 -16 9 -23 -11 -44 -12 -13 -35 -26 -51 -28 -27 -4 -29 -1 -58 76 -16 45
-36 99 -42 121 -7 22 -22 54 -33 70 -17 25 -14 24 15 -7 37 -39 68 -49 68 -23
0 8 4 15 9 15 6 0 1 21 -10 46 -25 56 -19 67 11 22 l22 -33 -6 32 c-4 22 0 37
11 49 11 11 13 18 5 23 -6 4 -11 21 -9 39 2 29 4 31 30 26 25 -4 28 -2 22 16
-3 11 -3 20 2 21 4 0 16 2 25 4 10 2 17 0 17 -3 -4 -30 5 -31 16 -2 7 19 14
27 14 18 1 -24 28 -23 43 2 20 32 48 26 48 -11z m4200 -179 c0 -8 -16 -26 -36
-39 -19 -13 -40 -34 -46 -45 -21 -38 -78 -66 -64 -31 3 8 -2 19 -12 24 -20 11
-22 54 -3 89 6 11 11 34 11 51 0 31 14 49 25 31 4 -6 12 -4 22 6 14 14 20 12
59 -27 24 -24 44 -50 44 -59z m-3730 79 c0 34 69 -10 94 -60 13 -26 12 -28
-25 -56 -21 -15 -39 -33 -39 -40 0 -16 -40 -43 -63 -43 -15 0 -17 3 -9 13 8 9
6 16 -8 24 -15 10 -17 17 -8 50 5 21 11 48 13 60 8 50 16 65 31 52 10 -8 14
-8 14 0z m159 -161 c23 -37 30 -77 22 -128 -5 -30 -4 -50 1 -50 5 0 3 -6 -4
-14 -8 -7 -34 -16 -60 -20 l-46 -7 -5 73 c-3 40 -8 83 -12 96 -6 19 -4 22 19
22 16 0 26 5 26 15 0 8 9 15 21 15 11 0 17 5 14 10 -3 6 -2 10 2 10 5 0 14
-10 22 -22z m3636 -1 c15 -23 18 -59 11 -151 -3 -54 -8 -58 -78 -69 l-38 -6 0
60 c0 33 -7 75 -14 94 -14 33 -14 35 4 35 10 0 31 13 47 30 34 36 48 37 68 7z
m-5857 -1758 c27 1 100 -22 151 -47 34 -17 35 -18 32 -72 -7 -142 -9 -132 29
-145 38 -13 40 -23 26 -95 -8 -41 -22 -58 -35 -44 -6 5 -5 31 4 66 14 62 14
62 -28 72 -31 7 -40 -7 -52 -86 l-7 -44 52 -17 c29 -9 59 -17 67 -17 8 0 11
-5 7 -11 -4 -8 -27 -9 -68 -5 -33 4 -110 9 -171 12 -60 3 -135 9 -165 14 -32
5 -56 4 -58 -1 -2 -5 -13 -9 -23 -9 -11 0 -18 -4 -15 -8 3 -5 -30 -17 -72 -27
-369 -86 -688 -340 -848 -675 -37 -77 -74 -188 -68 -203 2 -7 -4 -22 -14 -32
-29 -32 -53 -87 -59 -138 -3 -26 -10 -50 -16 -54 -6 -4 -8 11 -5 41 l6 46
-102 0 c-104 0 -145 11 -116 30 15 10 63 14 174 15 39 0 61 4 64 13 3 9 -9 11
-50 6 -66 -8 -82 6 -68 54 10 36 8 37 -23 18 -12 -7 -36 -16 -54 -19 -42 -8
-88 29 -105 85 -9 30 -24 50 -59 75 l-47 33 18 38 c10 20 21 52 25 71 8 40 40
113 102 238 25 51 46 96 46 100 1 4 7 15 14 23 7 8 13 19 12 23 0 5 12 22 28
39 18 19 22 27 10 23 -9 -4 -17 -3 -17 3 0 14 128 160 191 218 29 27 63 60 76
72 12 13 27 21 32 17 17 -10 13 -25 -6 -26 -10 0 -39 -28 -65 -61 -73 -94 -72
-98 82 -255 148 -153 158 -157 221 -94 57 56 53 82 -19 154 l-58 57 -34 -35
c-19 -19 -39 -35 -45 -35 -14 0 -155 142 -155 157 0 29 25 22 66 -18 l44 -43
27 26 26 27 -44 41 -44 42 58 52 c63 57 70 70 32 60 -14 -3 -25 -2 -25 2 1 15
52 47 59 38 9 -13 41 -17 41 -5 0 5 8 7 19 4 11 -3 24 3 32 15 8 11 31 21 54
24 l41 6 36 -77 c21 -42 57 -119 82 -173 29 -64 51 -98 65 -103 20 -6 74 16
86 35 4 6 10 8 15 5 12 -7 70 22 70 35 0 6 -4 10 -8 10 -4 0 -14 17 -22 38 -8
20 -17 41 -19 46 -2 5 2 5 9 1 7 -4 4 4 -5 18 -9 15 -14 31 -10 36 3 6 -5 20
-18 31 -37 32 -94 157 -81 178 26 43 194 93 261 78 25 -5 44 -16 47 -25 16
-53 56 -329 51 -348 -5 -20 -2 -23 25 -23 30 0 37 8 21 26 -5 5 -12 20 -16 33
l-7 24 30 -22 c17 -11 35 -21 41 -21 6 0 11 -4 11 -10 0 -14 57 -12 67 2 4 7
7 26 6 43 -1 16 1 22 3 13 10 -32 20 -19 18 21 -2 37 -25 87 -36 76 -4 -4 -38
202 -38 229 0 5 36 6 83 2 45 -4 92 -7 105 -7z m540 -131 c19 -16 44 -28 61
-28 16 0 44 -6 63 -14 34 -14 98 -72 98 -88 0 -4 13 -8 29 -8 16 0 31 -6 35
-15 3 -8 12 -15 21 -15 8 0 15 -4 15 -10 0 -5 6 -10 14 -10 23 0 25 -11 12
-73 -10 -50 -16 -60 -46 -76 -19 -10 -34 -26 -34 -35 3 -25 -56 -37 -80 -17
-18 15 -18 15 -11 -9 4 -14 14 -31 24 -39 15 -13 15 -13 -1 -8 -10 3 -20 2
-23 -3 -8 -13 -55 -13 -55 0 0 6 9 10 20 10 11 0 20 7 20 15 0 17 -35 21 -45
5 -3 -5 -20 -10 -36 -10 -23 0 -32 6 -40 28 -9 24 -12 25 -20 10 -13 -23 -33
-23 -78 1 -20 11 -48 22 -63 25 -27 6 -40 26 -16 26 6 0 3 9 -7 20 -10 11 -14
20 -8 20 6 0 20 23 31 50 21 50 17 58 -16 41 -9 -5 -25 -12 -34 -15 -11 -3
-15 -11 -12 -21 3 -8 1 -15 -5 -15 -6 0 -11 5 -11 10 0 6 -7 10 -16 10 -12 0
-15 6 -11 23 4 12 9 41 13 65 4 24 10 38 14 32 12 -20 38 32 33 67 -4 25 -1
32 15 37 13 5 18 13 15 26 -10 40 85 32 135 -12z m-586 -547 c13 -5 63 -14
112 -20 48 -7 107 -19 130 -27 22 -9 48 -16 56 -16 8 -1 17 -4 20 -7 3 -4 53
-31 112 -61 60 -29 115 -64 123 -77 9 -13 22 -23 30 -23 8 0 15 -7 15 -16 0
-8 7 -22 15 -30 19 -20 20 -64 1 -64 -8 0 -23 -16 -35 -36 -25 -43 -25 -41 -3
-46 13 -4 24 -25 36 -67 9 -33 21 -61 27 -61 5 0 9 -7 9 -15 0 -17 11 -20 25
-6 6 5 24 12 40 15 26 6 33 2 48 -23 9 -16 17 -40 17 -53 0 -18 2 -20 10 -8 5
8 11 12 14 9 8 -7 -5 -49 -15 -49 -4 0 -11 -21 -15 -46 -5 -36 -10 -44 -23
-38 -9 3 -24 9 -33 11 -10 3 -18 12 -18 19 0 8 -8 14 -17 15 -71 2 -123 8
-153 16 -38 11 -33 15 40 31 39 8 41 10 14 11 -17 0 -37 8 -44 16 -18 22 -28
19 -45 -15 -19 -37 -47 -49 -131 -54 -34 -3 -75 -10 -90 -18 -60 -29 -120
-188 -80 -210 13 -7 15 -13 6 -23 -7 -8 -9 -19 -5 -25 10 -16 -14 -40 -41 -40
-12 0 -26 -4 -29 -10 -3 -5 -11 -10 -16 -10 -6 0 1 14 15 31 22 25 26 41 26
90 0 66 19 113 76 188 19 24 34 50 34 57 0 8 5 14 11 14 5 0 8 4 5 9 -4 5 0
11 6 14 32 11 -11 22 -93 22 l-89 0 6 35 c3 19 17 45 30 57 29 27 30 33 4 33
-13 0 -22 9 -26 25 -10 41 -19 29 -17 -22 1 -43 1 -45 -6 -13 -6 33 -7 31 -14
-28 -5 -34 -5 -67 -1 -74 5 -7 3 -8 -6 -3 -10 6 -11 2 -7 -16 3 -14 -2 -41
-12 -64 -18 -40 -18 -40 -18 -10 -1 17 -8 64 -17 105 -9 41 -16 83 -16 92 0
26 30 50 58 45 21 -4 22 -3 10 10 -13 12 -20 12 -56 -2 -45 -18 -55 -40 -43
-95 5 -26 3 -38 -8 -47 -14 -10 -13 -13 6 -30 29 -24 40 -81 18 -89 -17 -7
-55 21 -55 40 0 19 -41 38 -97 43 -52 6 -55 5 -45 -13 25 -45 69 -85 85 -78
28 10 19 -10 -11 -24 -50 -25 -53 -25 -46 -7 8 20 -11 35 -43 35 -21 0 -183
-115 -183 -131 0 -4 -22 -11 -50 -15 -27 -4 -50 -9 -50 -13 0 -11 -180 5 -192
17 -16 16 -6 24 39 32 l38 8 -32 1 c-24 1 -31 5 -27 16 5 11 25 15 83 17 l76
2 -70 6 c-38 4 -54 7 -35 8 19 1 53 9 75 17 22 8 68 14 103 15 l62 0 0 -36 c0
-19 4 -33 8 -30 5 3 6 24 3 48 l-6 43 -118 3 c-113 3 -117 3 -107 22 9 16 21
20 65 20 43 0 58 5 75 22 23 25 20 34 -8 19 -10 -5 -28 -7 -40 -4 -12 3 -36 0
-54 -6 -27 -9 -30 -9 -16 2 15 12 15 15 -3 37 l-19 25 0 -43 c0 -30 -7 -53
-24 -75 -13 -18 -40 -63 -61 -100 -20 -37 -39 -66 -42 -64 -2 3 9 27 25 54 17
28 33 60 37 71 5 19 2 22 -20 22 -14 0 -28 -7 -32 -15 -3 -9 -18 -22 -34 -31
-29 -14 -29 -15 -29 -104 0 -53 -4 -90 -10 -90 -6 0 -10 38 -10 94 0 133 -8
183 -31 189 -35 9 -90 -15 -106 -46 -8 -17 -23 -39 -33 -49 -9 -10 -22 -37
-29 -59 -7 -23 -14 -39 -17 -36 -2 2 0 16 5 31 l11 26 -114 0 c-89 0 -115 3
-119 14 -12 31 20 39 138 33 l114 -5 21 34 c11 20 20 50 20 67 1 45 49 180 92
257 68 122 165 211 344 317 63 38 105 52 214 74 92 19 265 24 302 10z m6975
-450 c-4 -17 -2 -19 12 -12 14 8 16 4 13 -32 -3 -23 -2 -39 2 -36 3 3 7 18 8
32 1 16 9 27 18 28 8 1 27 3 43 5 18 2 25 -1 21 -8 -4 -6 -8 -27 -9 -46 -2
-26 4 -41 21 -57 13 -12 21 -25 17 -29 -4 -3 2 -13 13 -21 10 -8 15 -15 10
-15 -6 0 -1 -6 9 -14 17 -12 21 -12 33 5 18 25 45 13 38 -17 -3 -12 0 -29 6
-36 7 -8 18 -23 24 -33 6 -11 22 -21 35 -22 13 -1 29 -3 34 -5 6 -2 11 2 13 7
5 15 34 45 44 45 15 0 8 -20 -14 -42 -12 -12 -22 -31 -23 -42 0 -12 -18 -48
-39 -80 -21 -33 -39 -67 -41 -78 -2 -10 -24 -45 -49 -77 -42 -54 -44 -60 -29
-72 15 -12 16 -12 10 3 -3 10 1 22 11 30 13 11 14 11 7 -2 -5 -8 -8 -22 -7
-31 2 -9 -6 -34 -17 -55 -11 -22 -21 -45 -23 -53 -5 -22 -31 -51 -47 -51 -10
0 -12 10 -8 40 3 22 1 43 -4 46 -5 3 -9 0 -9 -6 0 -6 -5 -8 -11 -4 -7 4 -6 11
5 22 14 15 17 15 29 -2 12 -17 13 -17 29 1 15 17 21 53 9 51 -21 -2 -17 9 24
61 45 57 51 81 20 81 -8 0 -23 -10 -35 -22 -25 -28 -26 -15 0 82 11 41 20 76
20 78 0 1 -7 2 -15 2 -21 0 -29 24 -15 49 9 18 8 21 -10 21 -25 0 -48 -48 -56
-118 -6 -56 -25 -125 -36 -133 -5 -3 -10 -30 -11 -59 -2 -42 -8 -59 -29 -83
-16 -16 -28 -35 -28 -43 0 -10 -12 -14 -42 -13 -24 0 -37 3 -30 6 6 2 9 9 6
14 -3 6 -11 5 -20 -2 -9 -7 -14 -8 -14 -1 0 6 5 12 11 14 8 3 9 18 5 44 -7 37
-10 40 -41 42 -25 2 -37 -3 -44 -17 -14 -26 -14 -31 4 -31 8 0 15 -9 15 -19 0
-11 -7 -26 -15 -35 -8 -8 -15 -21 -15 -29 0 -8 -7 -18 -16 -21 -10 -4 -13 -13
-9 -26 4 -11 2 -20 -4 -20 -6 0 -11 -4 -11 -10 0 -12 22 -9 33 5 5 6 7 4 5 -4
-6 -22 -54 -32 -75 -15 -13 10 -15 16 -6 22 18 11 52 93 46 109 -3 7 -1 13 5
13 18 0 32 56 19 73 -14 18 -43 26 -42 12 0 -5 9 -9 20 -7 20 3 20 2 0 -12
-11 -8 -24 -12 -29 -9 -5 3 -7 -6 -4 -21 3 -14 2 -29 -3 -31 -12 -8 -27 25
-21 48 3 13 1 18 -6 13 -14 -8 -10 -109 5 -128 26 -34 25 -40 -6 -24 -35 19
-71 81 -71 125 0 32 29 57 55 47 7 -2 21 1 31 8 21 16 12 46 -15 46 -10 0 -21
9 -24 20 -5 20 9 38 20 26 4 -3 1 -6 -6 -6 -7 0 -9 -5 -6 -10 9 -15 25 -2 25
20 0 13 5 17 20 13 11 -3 20 -12 20 -19 0 -17 2 -17 35 -2 14 6 24 17 21 24
-3 7 2 15 10 18 9 3 12 10 9 16 -3 5 -1 10 6 10 6 0 9 -8 6 -20 -3 -11 -1 -23
4 -26 12 -7 41 15 33 27 -3 5 1 27 7 49 14 47 8 57 -26 42 -27 -13 -34 -42
-10 -42 8 0 15 -7 15 -16 0 -13 -3 -14 -13 -5 -11 8 -19 5 -37 -14 -33 -35
-76 -34 -85 3 -14 57 -48 122 -64 123 -10 0 -11 2 -3 6 20 8 14 47 -18 96 -16
26 -28 47 -26 47 2 0 17 -13 34 -30 34 -32 51 -37 69 -19 10 10 -4 69 -20 85
-10 11 -8 24 3 24 6 0 15 -12 21 -26 5 -15 12 -25 14 -22 4 4 11 76 14 142 1
14 7 17 26 14 21 -4 24 -2 20 12 -8 26 13 35 34 16 17 -15 19 -15 35 6 9 13
14 17 11 11 -4 -8 1 -13 15 -13 14 0 24 9 31 30 11 29 11 29 31 10 13 -12 19
-26 15 -39z m543 -113 c22 -24 40 -48 40 -54 0 -7 -17 -24 -37 -40 -21 -15
-40 -32 -42 -37 -1 -4 -13 -18 -25 -30 -18 -20 -27 -23 -52 -18 -4 0 -1 7 5
15 9 11 7 15 -8 19 -21 5 -26 49 -8 82 6 11 12 36 14 55 5 41 10 47 25 32 8
-8 14 -7 25 4 20 19 19 20 63 -28z m118 -235 c-2 -40 -7 -73 -13 -73 -5 0 -3
-4 5 -10 21 -13 9 -21 -55 -35 l-55 -13 0 59 c0 33 -6 75 -14 94 -14 34 -14
34 15 40 16 4 29 13 29 21 0 8 6 14 14 14 8 0 17 8 21 18 6 15 10 13 31 -13
22 -27 24 -38 22 -102z m-9174 40 c-7 -40 -24 -66 -30 -48 -2 6 -40 9 -93 7
-49 -2 -110 0 -135 6 -26 5 -46 6 -46 1 0 -5 -29 -9 -64 -9 -46 0 -67 4 -77
16 -24 30 10 35 219 32 184 -2 205 -1 213 15 16 27 20 20 13 -20z m1317 -12
c-7 -5 -3 -18 11 -41 13 -23 23 -61 27 -115 8 -82 2 -99 -30 -92 -10 3 -20 -7
-28 -27 -6 -17 -24 -55 -39 -83 -25 -50 -28 -53 -65 -53 -22 0 -79 7 -128 16
l-89 16 21 29 c11 16 24 29 29 29 5 0 7 6 4 13 -5 14 3 16 96 21 119 8 147 25
168 106 23 89 23 106 5 144 -15 32 -15 38 -3 46 8 5 18 6 23 3 5 -3 4 -8 -2
-12z m274 -197 c-20 -15 -19 -24 3 -24 9 -1 -7 -12 -36 -27 -53 -25 -54 -25
-72 -7 -30 31 -32 56 -7 93 12 19 27 42 32 50 6 9 19 29 30 45 l20 30 22 -75
c20 -65 21 -75 8 -85z m-779 -46 c19 -10 53 -18 75 -18 39 0 89 -23 89 -42 0
-5 -10 -24 -22 -40 -20 -29 -23 -30 -76 -24 -31 4 -62 12 -70 19 -27 22 -54
96 -46 125 4 17 9 21 11 12 2 -8 20 -23 39 -32z m-755 -51 c-1 -4 -3 -7 -6 -7
-2 0 -15 -11 -28 -24 -12 -12 -30 -27 -39 -32 -20 -11 -30 -55 -17 -75 7 -11
9 -11 9 3 0 18 35 22 56 6 7 -5 16 -2 24 7 7 8 19 15 26 15 23 0 16 -26 -11
-38 -14 -6 -37 -29 -52 -51 -16 -22 -33 -40 -40 -41 -6 0 -13 -5 -15 -12 -2
-6 -14 -12 -26 -13 -18 -1 -22 4 -22 27 0 16 7 45 15 65 18 43 18 46 2 40 -7
-3 -21 1 -31 8 -16 13 -15 15 21 37 21 13 51 30 67 38 16 8 33 25 39 38 9 20
30 27 28 9z m-5 -452 c15 -23 15 -26 -9 -54 -14 -17 -27 -36 -29 -42 -2 -7
-22 -14 -43 -15 -22 -2 -52 -5 -67 -8 -16 -2 -28 0 -28 5 0 5 -7 9 -15 9 -22
0 -75 28 -75 40 0 5 55 27 123 48 67 22 123 40 124 41 2 1 10 -10 19 -24z
m3106 -2057 c-3 -14 -1 -19 6 -14 8 5 12 -3 12 -23 0 -17 5 -31 10 -31 6 0 10
6 9 13 -3 26 2 34 26 45 28 13 30 10 14 -20 -8 -15 -8 -19 1 -13 7 4 11 1 10
-6 -4 -25 12 -59 26 -59 8 0 14 -7 14 -15 0 -8 5 -15 10 -15 6 0 10 -7 10 -16
0 -10 5 -14 15 -10 13 5 14 2 4 -16 -10 -18 -9 -20 5 -15 10 4 16 1 16 -9 0
-8 5 -12 10 -9 6 3 8 18 5 33 -3 16 -2 21 2 12 5 -8 15 -15 23 -15 10 0 16
-12 18 -37 2 -25 8 -38 18 -38 8 0 14 -9 14 -20 0 -14 7 -20 23 -22 12 0 28
-2 35 -2 8 -1 19 -12 26 -25 11 -21 8 -30 -31 -89 -24 -37 -41 -72 -39 -78 6
-17 -30 -49 -39 -35 -10 17 -37 13 -61 -10 l-21 -20 16 78 c8 43 19 80 23 81
15 7 8 24 -7 18 -10 -4 -15 1 -15 15 0 11 -4 17 -10 14 -13 -8 -13 1 1 27 9
17 8 19 -8 16 -22 -4 -52 -65 -54 -110 -1 -48 -20 -121 -36 -139 -7 -9 -13
-38 -13 -67 0 -29 -4 -52 -10 -52 -5 0 -20 -18 -32 -39 -22 -38 -23 -39 -53
-27 -16 7 -34 11 -40 9 -6 -2 -10 17 -10 44 l0 48 -40 0 c-34 0 -40 -3 -43
-22 -2 -13 1 -23 7 -23 6 0 11 -13 11 -28 0 -15 6 -34 13 -42 10 -12 9 -12 -6
0 -17 12 -21 11 -38 -10 -20 -27 -25 -45 -9 -35 6 3 10 2 10 -2 0 -5 -9 -14
-20 -21 -12 -7 -18 -17 -14 -23 4 -6 11 -5 22 3 13 11 14 11 10 -2 -7 -23 -62
-23 -84 1 -15 17 -15 19 -2 14 20 -8 48 40 51 85 1 17 8 30 15 30 6 0 11 3 10
8 0 4 2 15 6 24 12 27 3 53 -21 56 -12 2 -29 15 -38 28 -9 14 -19 23 -22 20
-6 -6 -33 18 -33 29 0 4 7 5 15 1 9 -3 15 0 15 10 0 9 -5 12 -12 8 -7 -4 -8
-3 -4 4 10 17 56 15 62 -2 5 -12 11 -13 30 -4 15 7 23 17 20 25 -3 8 -1 11 4
8 6 -4 14 4 19 17 10 23 10 22 10 -4 1 -16 4 -28 9 -28 19 1 31 18 30 47 -1
18 5 39 12 48 19 22 -3 44 -28 29 -23 -15 -30 -56 -8 -48 9 4 16 1 16 -6 0 -7
-8 -10 -19 -7 -12 3 -28 -4 -41 -18 -33 -35 -67 -30 -81 13 -7 20 -21 56 -32
81 -12 25 -22 52 -23 60 -7 42 -18 67 -41 100 -24 34 -24 35 -2 11 14 -14 36
-31 51 -39 23 -12 29 -12 42 2 13 13 14 18 4 29 -7 7 -15 20 -17 28 -2 8 -6
23 -8 33 -3 9 0 17 6 17 6 0 11 -4 11 -8 0 -5 7 -17 15 -28 13 -18 14 -17 14
11 0 17 1 54 3 83 2 50 3 53 28 50 19 -2 24 1 22 14 -4 25 17 32 38 13 18 -16
19 -16 29 16 7 26 9 28 10 12 1 -33 28 -28 46 8 l16 31 19 -22 c11 -12 16 -29
12 -42z m3613 52 c-3 -5 1 -10 9 -10 10 0 16 -9 16 -25 0 -14 5 -25 10 -25 6
0 10 -16 10 -36 0 -20 4 -33 10 -29 5 3 7 11 5 18 -6 16 5 31 33 46 26 14 30
0 6 -23 -8 -9 -11 -16 -5 -16 6 0 15 9 21 20 6 11 15 20 21 20 6 0 7 -5 3 -11
-4 -7 -8 -28 -9 -47 -2 -26 4 -41 21 -57 13 -12 24 -27 24 -34 0 -6 5 -11 11
-11 6 0 8 -7 5 -16 -3 -8 -2 -12 4 -9 6 3 13 -1 16 -10 6 -14 8 -13 21 4 18
27 46 16 40 -15 -2 -14 3 -33 14 -45 10 -11 19 -25 21 -31 2 -5 17 -10 34 -10
23 -1 36 -8 48 -29 14 -24 20 -27 41 -19 18 7 29 5 45 -8 l21 -17 -21 -28 -22
-28 -24 22 c-13 12 -21 25 -19 29 3 5 -1 10 -8 13 -8 3 -26 -15 -45 -48 -35
-58 -39 -70 -19 -59 7 4 9 3 4 -2 -5 -5 -14 -9 -20 -9 -7 -1 -11 -5 -10 -11 1
-5 -7 -21 -18 -34 -15 -20 -19 -22 -19 -7 0 24 -35 22 -61 -5 -20 -21 -21 -22
-16 -3 3 11 11 47 18 80 7 33 17 66 22 73 7 9 4 12 -12 12 -27 0 -38 26 -22
51 9 16 8 19 -9 19 -26 0 -50 -57 -56 -128 -2 -30 -6 -58 -9 -63 -4 -5 -8 -19
-10 -31 -3 -12 -9 -24 -15 -28 -5 -3 -10 -28 -11 -55 -2 -38 -9 -58 -31 -85
-15 -19 -28 -40 -28 -46 0 -7 -8 -10 -19 -7 -18 5 -18 7 9 32 33 30 42 62 20
69 -8 3 -12 1 -8 -3 8 -8 -34 -45 -51 -45 -7 0 -9 -10 -5 -27 4 -18 2 -24 -3
-15 -6 7 -16 11 -24 9 -8 -2 -11 -2 -6 0 9 6 9 65 -1 79 -4 6 -22 10 -41 10
-25 -1 -36 -7 -42 -23 -6 -17 -5 -23 6 -23 20 0 20 -49 0 -56 -8 -4 -15 -12
-15 -20 0 -8 -4 -14 -9 -14 -5 0 -12 -7 -15 -16 -4 -12 -2 -15 9 -10 8 3 15 1
15 -4 0 -5 -9 -12 -20 -15 -11 -3 -20 -10 -20 -15 0 -12 28 -20 34 -9 2 5 3 4
2 -3 -2 -7 -9 -13 -17 -13 -8 0 -19 -4 -25 -7 -6 -4 -22 4 -35 18 -17 18 -19
23 -6 18 13 -5 21 3 33 32 9 22 17 49 18 61 0 13 6 23 12 23 10 0 12 4 15 45
3 33 0 45 -12 45 -5 0 -7 -6 -3 -12 4 -7 -2 -5 -13 5 -12 10 -24 14 -27 9 -3
-6 1 -13 10 -16 8 -3 12 -10 9 -16 -4 -6 -11 -7 -17 -4 -7 5 -9 -5 -4 -31 7
-34 6 -36 -7 -23 -9 8 -17 28 -19 44 -4 25 -5 26 -13 10 -5 -11 -4 -30 2 -47
7 -18 7 -31 1 -37 -7 -7 -2 -18 12 -32 26 -26 21 -35 -12 -20 -30 14 -54 53
-62 100 -8 46 3 61 50 69 48 8 58 35 20 52 -26 12 -36 31 -15 27 6 -2 14 3 17
11 3 9 0 11 -8 6 -9 -5 -11 -4 -6 3 9 15 49 15 63 1 17 -17 47 -2 63 33 l15
33 3 -27 c6 -51 39 -25 40 31 0 19 6 37 13 41 20 13 0 28 -36 27 -19 -1 -35
-3 -35 -6 1 -12 27 -40 32 -35 3 2 8 -2 12 -11 4 -12 1 -15 -13 -13 -10 2 -28
-5 -40 -16 -28 -25 -71 -29 -78 -8 -5 17 -37 101 -52 137 -5 11 -14 39 -20 61
-6 23 -18 47 -26 54 -8 7 -15 18 -15 24 1 6 9 2 18 -9 19 -22 56 -45 71 -45
13 0 22 30 14 43 -4 7 -13 27 -19 45 -10 26 -9 32 2 32 8 0 14 -6 14 -14 0 -7
6 -19 14 -25 11 -9 12 -6 8 14 -2 13 -1 33 3 42 4 10 8 35 8 56 1 35 3 38 25
34 16 -3 22 -1 18 9 -8 22 17 34 39 18 17 -13 20 -12 31 13 8 19 13 22 13 11
1 -28 29 -21 46 12 9 17 18 30 21 30 3 0 2 -4 -1 -10z m-3087 -273 c-69 -69
-104 -90 -93 -58 3 12 0 21 -9 24 -16 6 -15 46 2 125 11 49 20 62 30 44 6 -8
12 -6 22 9 15 19 16 18 63 -31 l49 -51 -64 -62z m3692 63 c0 -9 -18 -29 -40
-46 -22 -16 -40 -34 -40 -41 0 -16 -40 -43 -63 -43 -15 0 -17 3 -9 13 8 9 6
16 -7 24 -18 12 -21 63 -4 86 5 7 10 25 11 42 2 35 19 56 30 38 6 -9 12 -7 22
7 14 19 16 18 57 -22 24 -23 43 -49 43 -58z m-3555 -130 c3 -16 2 -46 -4 -67
-6 -21 -8 -51 -6 -65 6 -30 -10 -38 -77 -41 l-33 -2 -6 70 c-4 39 -10 80 -14
93 -6 19 -4 22 18 22 14 0 27 7 31 15 3 8 13 15 21 15 9 0 14 4 11 9 -4 5 0
11 6 14 17 5 45 -28 53 -63z m3618 45 c11 -15 17 -41 16 -67 0 -24 -1 -64 -1
-90 -1 -51 -3 -53 -72 -63 l-46 -7 0 63 c0 35 -6 76 -14 91 -16 31 -12 38 21
38 14 0 23 6 23 15 0 8 6 15 14 15 8 0 16 7 20 15 8 21 18 18 39 -10z"/>
</g>
</svg>
